<svg width="24" height="24" viewBox="0 0 24 24" fill="none" xmlns="http://www.w3.org/2000/svg">
<path d="M7.95373 7.95373C7.63448 8.27297 7.63448 8.79061 7.95373 9.10981L10.844 12L7.95374 14.8902C7.63449 15.2095 7.63449 15.7271 7.95374 16.0463C8.27298 16.3655 8.79061 16.3655 9.10981 16.0463L12 13.156L14.8902 16.0463C15.2094 16.3655 15.727 16.3655 16.0462 16.0463C16.3655 15.727 16.3655 15.2095 16.0462 14.8902L13.1561 12L16.0462 9.10981C16.3655 8.79061 16.3655 8.27297 16.0462 7.95373C15.727 7.63449 15.2094 7.63449 14.8902 7.95373L12 10.8439L9.10981 7.95373C8.79061 7.63448 8.27297 7.63448 7.95373 7.95373Z" fill="black"/>
</svg>
